<svg id="Layer_1" data-name="Layer 1" xmlns="http://www.w3.org/2000/svg" viewBox="0 0 384.52 507.11"><defs><style>.cls-1{fill:#d6d6d6;}</style></defs><title>Artboard 4</title><path class="cls-1" d="M193.22,507.29c-57.4,0-99.4-18.9-133.7-52.5C9.82,405.09,9.12,349.1,9.12,253.9S9.82,102.7,59.52,53C93.82,19.4,135.82.5,193.22.5,286.32.5,357.71,53.7,375.91,158h-99.4c-9.8-40.6-35-70.7-83.29-70.7-26.6,0-48.31,9.8-62.31,25.9-18.19,21-24.49,45.5-24.49,140.7s6.3,119.7,24.49,140.69c14,16.11,35.71,25.91,62.31,25.91,48.29,0,74.19-30.1,84-70.71h98.7C357.71,454.09,285.62,507.29,193.22,507.29Z"/></svg>