<svg id="Layer_1" data-name="Layer 1" xmlns="http://www.w3.org/2000/svg" viewBox="0 0 378.53 508.42"><defs><style>.cls-1{fill:#d6d6d6;}</style></defs><title>Artboard 9</title><path class="cls-1" d="M327.1,450.49c-41.3,43.4-87.5,56.7-140.7,56.7-56.7,0-98.7-18.9-133-52.5C3.71,405,3,349,3,253.79s.71-151.2,50.41-200.9C87.7,19.29,129.7.39,186.4.39,302.6.39,360.7,76,374,160H276c-11.2-47.6-39.9-72.8-89.6-72.8-26.6,0-47.6,10.5-62.3,26.6-18.2,21-23.8,44.8-23.8,140s5.6,119.7,23.8,140.7c14.7,16.1,35.7,25.9,62.3,25.9,30.1,0,53.9-10.5,69.3-28,16.1-18.2,22.4-40.6,22.4-66.5v-18.2H186.4v-81.9H374.7v72.8C374.7,370.69,363.5,412.69,327.1,450.49Z"/></svg>