<svg id="Layer_1" data-name="Layer 1" xmlns="http://www.w3.org/2000/svg" viewBox="0 0 378.62 524.53"><defs><style>.cls-1{fill:#d6d6d6;}</style></defs><title>Artboard 17</title><path class="cls-1" d="M323.77,464.22c-33.6,33.6-75.6,52.5-133,52.5s-100.1-18.9-133.7-52.5c-49.7-49.7-50.4-105.7-50.4-200.9s.7-151.19,50.4-200.89c33.6-33.6,76.3-52.5,133.7-52.5s99.4,18.9,133,52.5c49.7,49.7,51.1,105.7,51.1,200.89S373.47,414.52,323.77,464.22Zm-70.7-340.89c-14-16.1-35.7-26.6-62.3-26.6s-48.3,10.5-63,26.6c-18.2,21-23.8,44.8-23.8,140s5.6,118.3,23.8,139.3c14.7,16.1,36.4,27.3,63,27.3s48.3-11.2,62.3-27.3c18.2-21,24.5-44.1,24.5-139.3S271.27,144.33,253.07,123.33Z"/></svg>