<svg id="Layer_1" data-name="Layer 1" xmlns="http://www.w3.org/2000/svg" viewBox="0 0 391.02 537.06"><defs><style>.cls-1{fill:#d6d6d6;}</style></defs><title>Artboard 19</title><path class="cls-1" d="M343.27,436.26,386,479l-51.1,51.1-44.8-43.4c-26.6,16.8-60.2,26.6-100.1,26.6-57.4,0-99.4-18.9-133.7-52.5-49.7-49.7-50.4-105.7-50.4-200.9s.7-151.2,50.4-200.9c34.3-33.6,76.3-52.5,133.7-52.5s99.4,18.9,133,52.5c49.7,49.7,51.1,105.7,51.1,200.9C374.07,340.36,373.37,392.16,343.27,436.26Zm-91-316.4c-14-16.1-35.7-26.6-62.3-26.6s-48.3,10.5-63,26.6c-18.2,21-23.8,44.8-23.8,140s5.6,118.3,23.8,139.3c14.7,16.1,36.4,27.3,63,27.3,11.9,0,22.4-2.8,32.2-9.1l-43.4-42.7,51.1-51.8,37.8,37.8c7-21.7,9.1-50.4,9.1-100.8C276.77,164.66,270.47,140.86,252.27,119.86Z"/></svg>