<svg id="Layer_1" data-name="Layer 1" xmlns="http://www.w3.org/2000/svg" viewBox="0 0 377.52 514"><defs><style>.cls-1{fill:#d6d6d6;}</style></defs><title>Artboard 21</title><path class="cls-1" d="M186.56,511.19c-75.6,0-133-16.1-182-65.8l63-63c31.5,31.5,74.2,42,119.7,42,58.1,0,88.9-22.4,88.9-62.3,0-16.8-4.9-30.8-15.4-41.3-9.8-9.1-19.6-13.3-44.8-16.8l-59.5-9.1c-44.1-6.3-74.2-19.6-96.6-41.3-23.8-23.1-35.7-56-35.7-98,0-88.9,65.8-151.2,173.6-151.2,68.6,0,118.3,16.8,161,58.1l-61.6,60.9c-30.8-30.1-69.3-34.3-102.2-34.3-51.8,0-76.3,28.7-76.3,63,0,13.3,3.5,25.9,14,35.7,9.8,9.1,24.5,16.1,45.5,18.9l59.5,9.1c45.5,6.3,73.5,18.2,95.2,39.2,26.6,24.5,38.5,60.2,38.5,105C371.36,456.59,291.56,511.19,186.56,511.19Z"/></svg>