<svg id="Layer_1" data-name="Layer 1" xmlns="http://www.w3.org/2000/svg" viewBox="0 0 686.04 517.89"><defs><style>.cls-1{fill:#d6d6d6;}</style></defs><title>Artboard 39</title><path class="cls-1" d="M156.18,513.08c-81.2,0-151.9-53.2-151.9-148.4v-210c0-95.2,70.7-148.4,151.9-148.4s151.2,53.2,151.2,148.4v210C307.38,459.88,237.38,513.08,156.18,513.08Zm60.2-357c0-42-23.8-67.9-60.2-67.9s-60.9,25.9-60.9,67.9V364c0,42,24.5,67.2,60.9,67.2s60.2-25.2,60.2-67.2Z"/><path class="cls-1" d="M532.22,513.08c-81.2,0-151.9-53.2-151.9-148.4v-210c0-95.2,70.7-148.4,151.9-148.4s151.2,53.2,151.2,148.4v210C683.42,459.88,613.42,513.08,532.22,513.08Zm60.2-357c0-42-23.8-67.9-60.2-67.9s-60.9,25.9-60.9,67.9V364c0,42,24.5,67.2,60.9,67.2s60.2-25.2,60.2-67.2Z"/></svg>