<svg id="Layer_1" data-name="Layer 1" xmlns="http://www.w3.org/2000/svg" viewBox="0 0 691.54 517.43"><defs><style>.cls-1{fill:#d6d6d6;}</style></defs><title>Artboard 33</title><path class="cls-1" d="M159.77,512.62c-81.2,0-151.9-53.2-151.9-148.4v-210c0-95.2,70.7-148.4,151.9-148.4S311,59,311,154.22v210C311,459.42,241,512.62,159.77,512.62Zm60.2-357c0-42-23.8-67.9-60.2-67.9s-60.9,25.9-60.9,67.9v207.9c0,42,24.5,67.2,60.9,67.2s60.2-25.2,60.2-67.2Z"/><path class="cls-1" d="M639.41,472c-22.4,22.4-58.1,40.6-109.9,40.6s-89.6-18.2-111.3-39.9c-30.8-30.8-37.8-67.2-40.6-103.6h91c4.9,39.2,23.1,61.6,60.9,61.6,17.5,0,32.2-4.9,43.4-16.1,16.1-16.1,19.6-42.7,19.6-74.2,0-57.4-16.8-89.6-60.9-89.6-37.1,0-53.9,21-60.2,40.6h-83.3V10h284.2v81.9H470.71V199c13.3-12.6,41.3-25.2,74.9-25.2,41.3,0,72.8,13.3,93.1,33.6,39.2,39.2,44.8,86.1,44.8,133C683.51,396.42,675.81,435.62,639.41,472Z"/></svg>