<svg id="Layer_1" data-name="Layer 1" xmlns="http://www.w3.org/2000/svg" viewBox="0 0 698.49 520"><defs><style>.cls-1{fill:#d6d6d6;}</style></defs><title>Artboard 36</title><path class="cls-1" d="M158.63,514.19c-81.2,0-151.9-53.2-151.9-148.4v-210c0-95.2,70.7-148.4,151.9-148.4s151.2,53.2,151.2,148.4v210C309.83,461,239.83,514.19,158.63,514.19Zm60.2-357c0-42-23.8-67.9-60.2-67.9s-60.9,25.9-60.9,67.9v207.9c0,42,24.5,67.2,60.9,67.2s60.2-25.2,60.2-67.2Z"/><path class="cls-1" d="M530.61,514.19c-88.2,0-159.6-52.5-159.6-149.1,0-60.9,35-93.8,62.3-112-25.2-17.5-56-50.4-56-103.6,0-88.2,70-142.1,153.3-142.1s152.6,53.9,152.6,142.1c0,53.2-30.8,86.1-56,103.6,27.3,18.2,63,51.1,63,112C690.21,461.69,618.81,514.19,530.61,514.19Zm0-219.8c-38.5,0-68.6,30.8-68.6,69.3s30.1,68.6,68.6,68.6,68.6-30.1,68.6-68.6S569.11,294.39,530.61,294.39Zm0-205.1c-35.7,0-62.3,27.3-62.3,63,0,36.4,26.6,63,62.3,63s61.6-26.6,61.6-63C592.21,116.59,566.31,89.29,530.61,89.29Z"/></svg>