<svg id="Layer_1" data-name="Layer 1" xmlns="http://www.w3.org/2000/svg" viewBox="0 0 691.08 513.43"><defs><style>.cls-1{fill:#d6d6d6;}</style></defs><title>Artboard 34</title><path class="cls-1" d="M159.22,510.62c-81.2,0-151.9-53.2-151.9-148.4v-210C7.32,57,78,3.82,159.22,3.82s151.2,53.2,151.2,148.4v210C310.42,457.42,240.42,510.62,159.22,510.62Zm60.2-357c0-42-23.8-67.9-60.2-67.9s-60.9,25.9-60.9,67.9v207.9c0,42,24.5,67.2,60.9,67.2s60.2-25.2,60.2-67.2Z"/><path class="cls-1" d="M528.26,510.62c-88.2,0-155.4-55.3-155.4-154,0-45.5,19.6-87.5,42-133L519.86,8h99.4l-103.6,205.8c11.9-4.9,25.2-6.3,37.1-6.3,67.2,0,130.9,55.3,130.9,147.7C683.66,453.22,616.46,510.62,528.26,510.62Zm0-227.5c-37.1,0-64.4,26.6-64.4,72.8s27.3,72.8,64.4,72.8,64.4-26.6,64.4-72.8C592.66,311.82,566.76,283.12,528.26,283.12Z"/></svg>