<svg id="Layer_1" data-name="Layer 1" xmlns="http://www.w3.org/2000/svg" viewBox="0 0 696.04 514.43"><defs><style>.cls-1{fill:#d6d6d6;}</style></defs><title>Artboard 35</title><path class="cls-1" d="M158.18,510.62c-81.2,0-151.9-53.2-151.9-148.4v-210C6.28,57,77,3.82,158.18,3.82s151.2,53.2,151.2,148.4v210C309.38,457.42,239.38,510.62,158.18,510.62Zm60.2-357c0-42-23.8-67.9-60.2-67.9s-60.9,25.9-60.9,67.9v207.9c0,42,24.5,67.2,60.9,67.2s60.2-25.2,60.2-67.2Z"/><path class="cls-1" d="M527.85,506.42h-98.7l161.7-416.5H459.25v78.4h-86.8V8h317.1v81.9Z"/></svg>