<svg id="Layer_1" data-name="Layer 1" xmlns="http://www.w3.org/2000/svg" viewBox="0 0 705.54 508"><defs><style>.cls-1{fill:#d6d6d6;}</style></defs><title>Artboard 32</title><path class="cls-1" d="M156.63,508.19c-81.2,0-151.9-53.2-151.9-148.4v-210c0-95.2,70.7-148.4,151.9-148.4s151.2,53.2,151.2,148.4v210C307.83,455,237.83,508.19,156.63,508.19Zm60.2-357c0-42-23.8-67.9-60.2-67.9s-60.9,25.9-60.9,67.9v207.9c0,42,24.5,67.2,60.9,67.2s60.2-25.2,60.2-67.2Z"/><path class="cls-1" d="M656.08,433.29V504h-87.5v-70.7H364.88v-86.1L535.68,5.59h99.4l-170.8,341.6h104.3v-93.1h87.5v93.1h45.5v86.1Z"/></svg>