<svg id="Layer_1" data-name="Layer 1" xmlns="http://www.w3.org/2000/svg" viewBox="0 0 676.15 512.49"><defs><style>.cls-1{fill:#d6d6d6;}</style></defs><title>Artboard 30</title><path class="cls-1" d="M155.3,510.12c-81.2,0-151.9-53.2-151.9-148.4v-210c0-95.2,70.7-148.4,151.9-148.4s151.2,53.2,151.2,148.4v210C306.5,456.92,236.5,510.12,155.3,510.12Zm60.2-357c0-42-23.8-67.9-60.2-67.9s-60.9,25.9-60.9,67.9V361c0,42,24.5,67.2,60.9,67.2S215.5,403,215.5,361Z"/><path class="cls-1" d="M372.37,505.92V424l186.2-216.3c18.2-21.7,25.9-37.1,25.9-60.2,0-37.1-21.7-62.3-60.2-62.3-30.1,0-60.9,15.4-60.9,63.7h-91c0-91,66.5-145.6,151.9-145.6,88.2,0,151.2,55.3,151.2,144.9,0,48.3-18.9,74.2-53.2,114.1L483,424h192.5v81.9Z"/></svg>