<svg id="Layer_1" data-name="Layer 1" xmlns="http://www.w3.org/2000/svg" viewBox="0 0 689.54 513.97"><defs><style>.cls-1{fill:#d6d6d6;}</style></defs><title>Artboard 31</title><path class="cls-1" d="M158.18,508.15C77,508.15,6.28,455,6.28,359.75v-210c0-95.2,70.7-148.4,151.9-148.4s151.2,53.2,151.2,148.4v210C309.38,455,239.38,508.15,158.18,508.15Zm60.2-357c0-42-23.8-67.9-60.2-67.9s-60.9,25.9-60.9,67.9V359.05c0,42,24.5,67.2,60.9,67.2s60.2-25.2,60.2-67.2Z"/><path class="cls-1" d="M528.83,508.15c-81.2,0-157.5-42.7-158.9-147h91c1.4,44.8,32.2,65.1,67.9,65.1,39.2,0,67.2-24.5,67.2-69.3,0-41.3-25.2-68.6-70-68.6h-13.3V209.26H526c44.1,0,63-27.31,63-62.31,0-42-28-63.69-60.9-63.69-34.3,0-59.5,22.4-61.6,60.19h-91c2.1-88.89,68.6-142.09,152.6-142.09,88.2,0,151.9,58.8,151.9,142.8,0,53.89-24.5,84.69-57.4,102.19,35.7,18.9,64.4,53.2,64.4,113.4C687,459.15,614.23,508.15,528.83,508.15Z"/></svg>