<svg id="Layer_1" data-name="Layer 1" xmlns="http://www.w3.org/2000/svg" viewBox="0 0 692.04 514.89"><defs><style>.cls-1{fill:#d6d6d6;}</style></defs><title>Artboard 37</title><path class="cls-1" d="M157.77,509.08c-81.2,0-151.9-53.2-151.9-148.4v-210c0-95.2,70.7-148.4,151.9-148.4S309,55.48,309,150.68v210C309,455.88,239,509.08,157.77,509.08Zm60.2-357c0-42-23.8-67.9-60.2-67.9s-60.9,25.9-60.9,67.9V360c0,42,24.5,67.2,60.9,67.2S218,402,218,360Z"/><path class="cls-1" d="M641.82,289.28l-105.7,215.6h-98.7L541,299.08c-11.9,4.9-25.2,6.3-37.1,6.3-67.2,0-131.6-55.3-131.6-147.7,0-98,67.2-155.4,155.4-155.4s155.4,55.3,155.4,154C683.12,201.78,664.22,243.78,641.82,289.28ZM527.72,84.18c-37.1,0-64.4,26.6-64.4,72.8,0,44.1,25.9,72.8,64.4,72.8,37.1,0,64.4-26.6,64.4-72.8S564.82,84.18,527.72,84.18Z"/></svg>